<?xml version="1.0" encoding="utf-8"?>
<!-- Generator: Adobe Illustrator 24.0.0, SVG Export Plug-In . SVG Version: 6.00 Build 0)  -->
<svg version="1.1" id="Capa_1" xmlns="http://www.w3.org/2000/svg" xmlns:xlink="http://www.w3.org/1999/xlink" x="0px" y="0px"
	 viewBox="0 0 40 40" style="enable-background:new 0 0 40 40;" xml:space="preserve">
<style type="text/css">
	.st0{fill:#FFFFFF;}
</style>
<g>
	<path class="st0" d="M24.2,10.1V5.5c0-0.4-0.2-0.8-0.6-0.9L21,3.2c-0.6-0.3-1.2,0-1.5,0.6l-2.4,6C18.1,9.5,19,9.4,20,9.4
		C21.6,9.4,23,9.7,24.2,10.1z M33.7,13.2c-1.8-1.5-4.3-2-6.6-1.4c0.4,0.4,0.8,0.7,1.1,1.2c0.2,0.3,0.4,0.6,0.5,0.9
		c-2.1-1.6-5-2.4-8.8-2.4s-6.7,0.8-8.8,2.4c0.2-0.3,0.3-0.7,0.5-0.9c0.3-0.4,0.7-0.8,1.1-1.2c-2.3-0.6-4.8-0.1-6.6,1.4
		c-7.1,6.1-7.1,16,0,22.1c2.6,2.2,6.7,2.2,9.3,0.1c1.2,1,2.6,1.6,4.4,1.6s3.3-0.6,4.4-1.6c2.6,2.1,6.7,2.1,9.3-0.1
		C40.8,29.2,40.8,19.3,33.7,13.2z M22.2,21.5l2.7-4.4c0.2-0.3,0.6-0.3,0.8,0l2.7,4.4c0.1,0.2,0.1,0.7-0.4,0.7h-5.4
		C22.1,22.1,22.1,21.7,22.2,21.5L22.2,21.5z M11.6,21.5l2.7-4.4c0.2-0.3,0.6-0.3,0.8,0l2.7,4.4c0.1,0.2,0.1,0.7-0.4,0.7H12
		C11.5,22.1,11.5,21.7,11.6,21.5L11.6,21.5z M32,25.9c-0.4,1.1-0.8,1.9-1.2,2.4c-0.6,0.9-1.4,1.6-2.3,2.2c0-0.6-0.5-1-1.1-1h-1.1
		c-0.6,0-1.1,0.5-1.1,1.1V32c-1.6,0.5-3.3,0.7-5.3,0.7c-2,0-3.7-0.2-5.3-0.7v-1.4c0-0.6-0.5-1.1-1.1-1.1h-1.1c-0.6,0-1,0.5-1.1,1
		c-0.9-0.6-1.7-1.3-2.3-2.1c-0.4-0.6-0.9-1.3-1.3-2.5c-0.3-0.9,0.7-1.7,1.5-1.2c2.2,1.3,4.7,2.2,7.3,2.6v1.2c0,0.6,0.5,1.1,1.1,1.1
		h1.1c0.6,0,1.1-0.5,1.1-1.1v-0.9h0c3.9,0,7.4-1,10.5-2.8C31.3,24.2,32.3,25,32,25.9L32,25.9z"/>
</g>
</svg>
